<?xml version="1.0" encoding="utf-8"?>
<!-- Generator: Adobe Illustrator 27.5.0, SVG Export Plug-In . SVG Version: 6.00 Build 0)  -->
<svg version="1.1" id="Layer_1" xmlns="http://www.w3.org/2000/svg" xmlns:xlink="http://www.w3.org/1999/xlink" x="0px" y="0px"
	 viewBox="0 0 900 900" style="enable-background:new 0 0 900 900;" xml:space="preserve">
<rect x="106.251" y="93.309" style="fill:#A5EDF9;" width="691.124" height="532.863"/>
<polygon style="opacity:0.59;fill:#FFFFFF;" points="249.979,644.065 453.419,644.065 791.43,101.935 587.99,101.935 "/>
<polygon style="opacity:0.59;fill:#FFFFFF;" points="153.983,644.065 203.44,644.065 541.451,101.935 491.995,101.935 "/>
<path style="fill:#FFFFFF;" d="M378.272,244.37v2.42c0,10.58-8.66,19.24-19.25,19.24H219.85c-10.58,0-19.24,8.66-19.24,19.25v8.21
	c0,10.57-8.66,19.23-19.25,19.23H104v-87.6h255.022C369.612,225.12,378.272,233.78,378.272,244.37z"/>
<path style="fill:#FFFFFF;" d="M790.37,271.453H497.096c-8.45,0-15.364-6.914-15.364-15.364v-20.168
	c0-8.45,6.914-15.364,15.364-15.364h32.179c8.446,0,15.356-6.91,15.356-15.356v-1.21c0-8.446-6.91-15.356-15.356-15.356H388.303
	c-7.996,0-14.546-5.803-14.546-12.893c0-7.082-6.542-12.877-14.546-12.877h-52.223c-4.221,0-8.044-1.725-10.818-4.499
	c-3.006-3.006-4.78-7.253-4.462-11.892c0.555-8.108,7.618-14.243,15.745-14.243H790.37c0.026,0,0.047,0.021,0.047,0.047v56.311
	c0,0.026-0.021,0.047-0.047,0.047h-54.197c-8.454,0-15.372,6.917-15.372,15.372v1.179c0,8.454,6.917,15.372,15.372,15.372h54.197
	c0.026,0,0.047,0.021,0.047,0.047v50.803C790.416,271.432,790.395,271.453,790.37,271.453z"/>
<g style="opacity:0.69;">
	<path style="fill:#7D7DAF;" d="M796.427,461.241c2.008,0,3.651,1.643,3.651,3.651v164.219c0,2.008-1.643,3.651-3.651,3.651H108.574
		c-2.008,0-3.651-1.643-3.651-3.651v-187c0-2.008,1.643-3.651,3.651-3.651h8.812c2.008,0,3.651-1.643,3.651-3.651v-44.182
		c0-2.008,1.591-4.062,3.536-4.564l28.991-7.481c1.945-0.502,5.179-0.912,7.187-0.912h50.461c2.008,0,3.651,1.643,3.651,3.651v51.84
		c0,2.008,1.643,3.651,3.651,3.651h31.964c2.008,0,3.651,1.643,3.651,3.651v46.591c0,2.008,1.643,3.651,3.651,3.651h9.807
		c2.008,0,3.651-1.643,3.651-3.651v-7.706c0-2.008,1.598-4.034,3.551-4.501l4.897-1.172c1.953-0.467,5.149-1.232,7.103-1.698
		l8.214-1.962c1.953-0.467,4.015-0.96,4.582-1.096c0.567-0.136,2.673-0.259,4.682-0.273l60.667-0.427
		c2.008-0.014,3.651,1.617,3.651,3.626v8.452c0,2.008,1.639,3.539,3.643,3.402l13.735-0.938c2.004-0.137,3.643-1.892,3.643-3.9
		v-34.811c0-2.008,1.593-4.055,3.539-4.549l28.48-7.219c1.947-0.493,5.182-0.897,7.191-0.897h70.167
		c2.008,0,3.651-1.643,3.651-3.651v-22.398c0-2.008,1.613-3.962,3.585-4.342l17.006-3.275c1.972-0.38,3.585-2.334,3.585-4.342
		v-27.639c0-2.008,1.631-3.852,3.624-4.098l68.315-8.42c1.993-0.246,5.267-0.447,7.275-0.447h49.69c2.008,0,3.651,1.643,3.651,3.651
		v131.022c0,2.008,1.643,3.651,3.651,3.651h17.133c2.008,0,3.651-1.643,3.651-3.651v-67.717c0-2.008,1.629-3.863,3.621-4.122
		l24.147-3.139c1.992-0.259,5.264-0.471,7.272-0.471h29.343c2.008,0,3.651,1.643,3.651,3.651v105.085
		c0,2.008,1.643,3.651,3.651,3.651h5.313c2.008,0,3.651-1.643,3.651-3.651v-49.317c0-2.008,1.508-4.303,3.352-5.099l8.394-3.626
		c1.844-0.797,4.995-1.448,7.003-1.448H796.427z"/>
</g>
<g>
	<path style="fill:#FFF1D2;" d="M158.173,381.465c0-2.008-0.241-3.683-0.536-3.722c-0.295-0.039-2.127,0.34-4.072,0.843
		l-28.989,7.485c-1.944,0.502-3.535,2.556-3.535,4.564l0,28.378c0,2.008,0,5.294,0,7.303v8.873c0,2.008,1.643,3.651,3.651,3.651
		h18.816c2.008,0,4.54,1.382,5.627,3.071l7.062,10.976c1.087,1.689,1.976,1.428,1.976-0.581V381.465z"/>
	<path style="fill:#FFF1D2;" d="M598.252,460.576c2.008,0,3.651-1.643,3.651-3.651V355.231c0-2.008-1.63-3.448-3.623-3.199
		l-68.845,8.6c-1.993,0.249-3.623,2.096-3.623,4.104v27.644c0,2.008,1.633,3.471,3.629,3.251l2.136-0.235
		c1.996-0.22,5.271-0.332,7.278-0.25l23.885,0.983c2.006,0.083,4.173,1.707,4.815,3.61l12.382,36.738
		c0.641,1.903,1.166,5.103,1.166,7.111v13.335c0,2.008,1.643,3.651,3.651,3.651H598.252z"/>
	<path style="fill:#FFF1D2;" d="M533.682,526.085c0.649,1.901,1.18,1.812,1.18-0.196V397.392c0-2.008-1.612-3.333-3.582-2.943
		l-25.963,5.134c-1.97,0.389-3.582,2.351-3.582,4.36v11.271c0,2.008,0,5.294,0,7.303l0,6.35c0,2.008,0.531,5.206,1.18,7.107
		L533.682,526.085z"/>
	<path style="fill:#FFF1D2;" d="M713.916,415.909c0-2.008-1.63-3.445-3.622-3.192l-22.867,2.9c-1.992,0.253-3.622,2.102-3.622,4.111
		v68.091c0,2.008,1.643,3.651,3.651,3.651h7.698c2.008,0,4.437,1.443,5.397,3.207l11.62,21.354c0.96,1.764,1.745,1.564,1.745-0.444
		V415.909z"/>
	<path style="fill:#FFF1D2;" d="M421.657,479.755c2.008,0,3.651-1.643,3.651-3.651v-41.057c0-2.008-0.033-3.654-0.073-3.658
		c-0.04-0.003-1.665,0.399-3.612,0.895l-15.686,3.992c-1.946,0.495-3.539,1.111-3.539,1.367c0,0.257,0.576,2.005,1.28,3.886
		l13.029,34.805c0.704,1.881,2.923,3.42,4.931,3.42H421.657z"/>
</g>
<rect x="339.88" y="99.697" style="fill:#FAFCFF;" width="11.361" height="527.457"/>
<rect x="584.22" y="99.697" style="fill:#FAFCFF;" width="11.361" height="527.457"/>
<g>
	<rect x="326.111" y="96.994" style="fill:#58616D;" width="16.182" height="536.268"/>
</g>
<rect x="114.342" y="101.399" style="fill:#FAFCFF;" width="11.361" height="527.457"/>
<g>
	<rect x="570.45" y="96.994" style="fill:#58616D;" width="16.182" height="536.268"/>
</g>
<path style="fill:#58616D;" d="M806.598,634.262H99.293V85.218h707.306V634.262z M115.474,618.081h674.943V101.399H115.474V618.081z
	"/>
<g>
	<path style="fill:#302C3D;" d="M450.095,505.47c16.385,37.622,32.771,75.244,49.156,112.866c0.029,0.066,0.058,0.132,0.086,0.198
		c3.034,6.966,4.715,13.456,3.036,20.939c-1.505,6.709-5.416,12.469-10.797,15.841c-10.452,6.548-27.825,2.869-33.751-10.736
		c-8.486-19.484-37.038-79.984-39.207-95.136c-4.526-31.62-4.869-53.084-2.275-54.709
		C426.796,488.186,444.17,491.865,450.095,505.47L450.095,505.47z"/>
</g>
<path style="fill:#FFFFFF;" d="M420.931,673.799c0,0,3.765-162.676-10.804-188.17c0,0-44.715-18.982-89.009,4.206
	c0,0,21.615,90.872,19.469,188.71L420.931,673.799z"/>
<path style="fill:#95BDC1;" d="M392.992,509.352l-15.47-21.217l11.632-10.348l4.683,2.471c5.617,2.963,6.841,7.259,4.098,15.509
	L392.992,509.352z"/>
<path style="fill:#42394F;" d="M477.699,701.612l-28.865-181.404c-2.904-16.09-9.348-27.848-17.737-30.677
	c-30.384-10.247-74.6-11.582-102.807-2.317l64.88-5.009c3.642-0.73,8.68,9.589,13.196,25.526
	c18.608,65.667-0.012,189.827-0.012,189.827c1.596,12.043,25.585,5.075,37.05,3.63L477.699,701.612z"/>
<path style="fill:#302C3D;" d="M383.396,471.188c0,0,32.664,5.384,41.549,31.237c0.245,0.712-0.06,1.5-0.706,1.888l-6.209,3.723
	c-1.144,0.686-1.007,2.385,0.231,2.88l10.036,4.007c0.503,0.201,0.872,0.636,0.98,1.167c1.378,6.745,9.059,52.532-13.494,103.375
	c0,0,3.526-133.511-32.37-145.079L383.396,471.188z"/>
<path style="fill:#42394F;" d="M384.667,469.418c0,0,31.174,4.394,39.272,29.696c0.217,0.679-0.058,1.423-0.652,1.818l-6.659,3.89
	c-1.085,0.721-0.911,2.364,0.301,2.842l9.139,3.604c0.52,0.205,0.896,0.658,0.994,1.208c1.22,6.792,8.13,51.892-13.084,102.352
	c0,0,3.989-131.855-29.311-142.255V469.418z"/>
<path style="fill:#723529;" d="M398.796,374.848c0,0,27.315,5.605,12.684,41.372L398.796,374.848z"/>
<polygon style="fill:#FFA87D;" points="387.554,484.997 347.709,494.828 343.997,441.987 384.334,439.154 "/>
<path style="fill:#FF855A;" d="M346.904,485.121l-3.029-43.125l44.92-3.155C384.619,482.714,346.904,485.121,346.904,485.121z"/>
<path style="fill:#FF855A;" d="M406.953,433.994c1.399,19.911-9.838,34.651-28.904,35.99l-0.697,0.049
	c-19.066,1.339-38.74-11.23-40.139-31.14l-2.074-29.522c-1.398-19.911,12.924-37.137,31.989-38.476l0.697-0.049
	c19.066-1.339,35.655,13.716,37.053,33.627L406.953,433.994z"/>
<path style="fill:#723529;" d="M408.862,372.236c0,0-44.048-33.401-71.482-1.464c-5.937-0.005-39.473,29.191,1.868,77.184
	c0,0,6.697-12.589,4.616-48.107l36.707-21.445L408.862,372.236z"/>
<path style="fill:#FFA87D;" d="M411.479,438.288c0.106,20.667-11.196,30.134-30.262,31.473l-0.697,0.049
	c-16.313,1.936-30.853-8.131-34.769-29.447l-4.199-31.443c-1.398-19.911,12.924-37.137,31.989-38.476l0.697-0.049
	c19.066-1.339,35.655,13.716,37.053,33.627L411.479,438.288z"/>
<path style="opacity:0.49;fill:#6D4B44;" d="M348.57,425.547c1.309,7.026-2.068,13.274-7.542,13.956
	c-5.474,0.681-10.973-4.462-12.281-11.488c-1.309-7.026,2.068-13.274,7.542-13.955C341.763,413.377,347.261,418.521,348.57,425.547z
	"/>
<path style="fill:#FFA87D;" d="M349.883,424.976c1.211,6.996-2.069,13.274-7.325,14.022c-5.257,0.748-10.5-4.317-11.711-11.313
	c-1.211-6.996,2.069-13.274,7.325-14.022C343.429,412.915,348.672,417.98,349.883,424.976z"/>
<path style="fill:#5E2600;" d="M377.217,423.685c-0.093,2.261-1.459,3.842-3.05,3.533c-1.591-0.309-2.806-2.393-2.713-4.653
	c0.093-2.261,1.459-3.842,3.05-3.533C376.095,419.341,377.31,421.424,377.217,423.685z"/>
<g>
	<path style="fill:#FF855A;" d="M383.375,439.672c4.772,3.492,10.694,2.531,13.603-2.716c0.918-1.657-1.621-3.142-2.54-1.485
		c-2.203,3.975-6.127,4.186-9.578,1.661C383.33,436.013,381.861,438.564,383.375,439.672L383.375,439.672z"/>
</g>
<g>
	<path style="fill:#F26F46;" d="M378.911,449.846c5.425,4.908,14.194,4.139,19.079-0.866c1.323-1.355-0.755-3.437-2.08-2.08
		c-3.885,3.979-11.083,4.337-14.92,0.866C379.59,446.499,377.504,448.573,378.911,449.846L378.911,449.846z"/>
</g>
<g>
	<path style="fill:#5E2600;" d="M366.232,412.444c3.374-2.701,9.3-2.709,13.653-0.337c1.663,0.906,3.149-1.633,1.485-2.54
		c-5.444-2.966-12.196-3.223-17.218,0.797C362.675,411.547,364.768,413.616,366.232,412.444L366.232,412.444z"/>
</g>
<g>
	<path style="fill:#5E2600;" d="M407.096,408.249c-4.833-3.377-10.891-2.1-14.691,2.115c-1.265,1.403,0.809,3.49,2.08,2.08
		c2.983-3.309,7.351-4.294,11.126-1.655C407.167,411.875,408.638,409.327,407.096,408.249L407.096,408.249z"/>
</g>
<path style="fill:#723529;" d="M343.871,427.609c0,0,6.366-10.562,3.667-39.491c0,0,50.782,8.053,68.895-10.821
	c0,0-7.572-5.061-20.743-4.445l8.564-2.546c0,0-10.543-5.238-26.547-5.558c-14.236-0.285-41.191,8.37-41.494,34.749L343.871,427.609
	z"/>
<path style="fill:#95BDC1;" d="M366.532,497.655c-1.431-1.403-1.37-3.725,0.134-5.05l5.65-4.981c0.98-0.864,2.364-1.1,3.575-0.61
	l6.981,2.826c1.857,0.752,2.685,2.923,1.8,4.721l-4.353,8.842h0.074c19.355,56.852,29.778,124.491,29.778,124.491l-13.616,23.499
	l-20.87-20c4.539-63.394,0.094-121.606-0.607-127.491L366.532,497.655z"/>
<path style="fill:#95BDC1;" d="M377.19,484.293l-6.469,29.139c-23.873-3.064-37.095-24.77-37.095-24.77l12.593-16.915
	L377.19,484.293z"/>
<path style="fill:#F21C3B;" d="M400.441,650.674l13.616-23.499c0,0-10.423-67.638-29.778-124.491l-7.548,0.002
	c0,0,7.628,61.116,2.84,127.988L400.441,650.674z"/>
<path style="fill:#F21C3B;" d="M370.419,496.936l7.804,7.65c1.677,1.644,4.472,1.168,5.509-0.94l4.827-9.804
	c0.885-1.798,0.057-3.969-1.8-4.721l-6.981-2.826c-1.211-0.49-2.595-0.254-3.575,0.61l-5.65,4.981
	C369.049,493.211,368.988,495.533,370.419,496.936z"/>
<path style="fill:#FFFFFF;" d="M377.19,484.293l-8.17,23.437c-21.66-7.287-25.646-15.994-25.646-15.994
	c-3.892-4.148,8.554-17.666,8.554-17.666L377.19,484.293z"/>
<g>
	<path style="fill:#475770;" d="M612.505,587.752l64.435-59.221c11.446-6.886,8.129-30.703,1.303-42.357
		c-1.673-2.857-3.894-5.27-6.463-7.175c-9.678-7.176-23.29-5.638-31.62,3.066l-11.433,14.814l-29.81,43.495
		c-2.067,2.922-5.349,4.739-8.922,4.934c-16.884,0.92-66.92,3.652-85.275,4.711c-13.346,0.77-13.206,44.339-2.727,44.339
		c0,0,73.788-0.329,99.372-1.883C605.512,592.224,609.446,590.563,612.505,587.752z"/>
</g>
<path style="fill:#42394F;" d="M387.582,682.584c-2.197-55.211-7.989-160.123-51.506-197.542c0,0-11.446,1.919-22.201,5.363
	c-10.647,3.41-18.036,13.324-18.529,24.727l13.194,197.052c0,0,10.583,0.932,43.339-1.951
	C366.815,708.92,388.192,697.908,387.582,682.584z"/>
<path style="fill:#FFFFFF;" d="M392.406,504.117l-15.217-19.825l9.708-8.636l-0.275-3.91l8.974,9.602
	c2.294,2.506,2.993,6.084,1.813,9.269L392.406,504.117z"/>
<path style="fill:#5E2600;" d="M402.781,422.123c-0.093,2.26-1.459,3.842-3.05,3.533c-1.591-0.309-2.806-2.393-2.712-4.653
	c0.093-2.26,1.459-3.842,3.05-3.533C401.66,417.779,402.874,419.862,402.781,422.123z"/>
<g>
	<path style="fill:#42394F;" d="M288.471,508.558c-6.166,36.104-12.332,72.208-18.499,108.313c-0.011,0.064-0.022,0.127-0.033,0.19
		c-1.142,6.685-1.099,12.651,2.447,18.703c3.178,5.426,8.439,9.486,14.506,11.155c11.784,3.241,27.628-3.896,29.858-16.953
		c0.884-5.175,2.308-14.441,3.906-25.136c4.175-27.946,9.534-65.652,9.534-65.652c-3.753-28.23,9.146-58.188,9.146-58.188
		C321.117,482.644,290.581,493.57,288.471,508.558L288.471,508.558z"/>
	<polygon style="fill:#302C3D;" points="321.598,607.263 330.19,539.178 334.121,607.615 321.598,607.263 	"/>
</g>
<path style="fill:#384559;" d="M511.727,572.704c-0.753,12.244-5.111,21.939-9.734,21.655c-4.623-0.284-7.76-10.44-7.007-22.684
	c0.753-12.244,5.111-21.939,9.734-21.655C509.343,550.304,512.48,560.461,511.727,572.704z"/>
<path style="fill:#BAA39E;" d="M502.77,569.063c-0.615,10-3.366,17.919-7.142,17.687c-3.776-0.232-7.147-8.527-6.532-18.528
	c0.615-10,4.192-17.661,7.968-17.428C500.84,551.026,503.385,559.062,502.77,569.063z"/>
<path style="fill:#302C3D;" d="M826.325,732.725c-0.019,0.068-0.039,0.137-0.058,0.205c-3.045,10.553-13.39,16.093-24.958,13.788
	l-100.947-20.115c-3.214-5.784-4.217-12.599-2.302-19.437l34.696-123.909c4.345-15.517,22.051-25.27,39.548-21.783l52.839,1.177
	c30.538,6.085,40.222,30.647,35.877,46.165L826.325,732.725z"/>
<path style="fill:#AA0019;" d="M814.262,720.969c-3.53,12.607-15.88,21.409-29.772,22.397l-83.748-16.688
	c-11.899-6.128-18.275-18.661-14.745-31.268l34.696-123.909c4.345-15.517,22.052-25.27,39.548-21.783l64.903,12.933
	c17.497,3.487,28.159,18.892,23.814,34.409L814.262,720.969z"/>
<g>
	<path style="fill:#302C3D;" d="M208.313,526.825c26.095,33.497,52.191,66.995,78.286,100.492c0.113,0.146,0.227,0.291,0.34,0.436
		c8.165,10.482,25.808,8.539,34.305,0c4.529-4.551,7.105-10.797,7.105-17.236c0-7.086-2.941-11.891-7.105-17.236
		c-26.095-33.497-52.191-66.995-78.286-100.492c-0.113-0.145-0.227-0.291-0.34-0.436c-8.165-10.481-25.808-8.539-34.306,0
		c-4.529,4.551-7.105,10.797-7.105,17.236C201.208,516.675,204.149,521.48,208.313,526.825L208.313,526.825z"/>
</g>
<path style="fill:#42394F;" d="M216.14,479.264c-17.784-5.752-46.781-10.628-52.692-0.687
	c-16.302,3.913-39.027,23.744-41.596,40.611c-9.76,64.067-23.518,201.043-23.518,201.043s77.145,10.305,126.707-9.035
	c0,0,10.833-62.446,20.195-131.017C252.819,524.637,253.42,491.322,216.14,479.264z"/>
<path style="fill:#FFA87D;" d="M220.31,491.07l-2.808,0.074c-13.977,0.369-27.904-1.823-41.093-6.467l-0.469-0.165l4.578-57.464
	l45.748,5.568L220.31,491.07z"/>
<polygon style="fill:#EA734E;" points="175.479,481.527 184.767,398.913 247.818,473.186 222.199,472.529 "/>
<path style="fill:#FFA87D;" d="M267.334,439.146l-11.132-21.255c0,0,2.804-5.765,2.868-7.723
	c1.153-35.465-5.999-48.806-29.626-52.375l-0.804-0.121c-19.694-2.975-23.068,14.146-26.043,33.84l-5.363,35.507
	c-3.496,23.145,3.885,24.939,15.115,31.725c11.078,6.694,30.826,14.949,35.47,14.442c5.821-0.635,8.308-27.707,8.308-27.707
	C257.074,445.927,267.567,442.663,267.334,439.146z"/>
<path style="fill:#561600;" d="M195.857,423.306c0,0,32.068-11.563,39.059-41.702c0,0,27.254-1.512,29.863-5.943
	c0,0-5.351-11.065-24.681-20.26c-16.067-7.642-60.985-11.013-70.155,17.623c-15.099,11.786-22.186,41.034,8.389,78.596
	C178.332,451.62,191.683,446.619,195.857,423.306z"/>
<path style="opacity:0.49;fill:#6D4B44;" d="M203.189,418.138c3.239,7.317,1.293,15.272-4.347,17.769
	c-5.64,2.497-12.838-1.41-16.077-8.727c-3.239-7.317-1.293-15.272,4.347-17.769S199.95,410.822,203.189,418.138z"/>
<g>
	<path style="fill:#C16952;" d="M255.568,453.188c-3.526-0.19-7.118-1.151-10.328-2.586c-1.316-0.589-2.466,1.357-1.14,1.95
		c3.596,1.608,7.518,2.682,11.468,2.895C257.021,455.525,257.017,453.266,255.568,453.188L255.568,453.188z"/>
</g>
<g>
	<path style="fill:#723F36;" d="M242.249,412.687c4.389-1.478,8.663-1.425,13.029,0.165c2.124,0.774,3.039-2.614,0.932-3.382
		c-4.877-1.777-9.979-1.821-14.893-0.166C239.189,410.022,240.102,413.41,242.249,412.687L242.249,412.687z"/>
</g>
<ellipse transform="matrix(0.9144 -0.4048 0.4048 0.9144 -153.1429 115.2405)" style="fill:#FFA87D;" cx="195.913" cy="419.724" rx="11.168" ry="14.488"/>
<path style="fill:#FF855A;" d="M267.335,439.146c0,0-0.078,0.285-0.316,0.731c-0.237,0.443-0.626,1.061-1.217,1.693
	c-0.287,0.329-0.643,0.631-1.021,0.96c-0.398,0.294-0.816,0.627-1.296,0.886c-0.472,0.277-0.978,0.538-1.521,0.734
	c-0.529,0.239-1.103,0.366-1.67,0.519c-0.57,0.138-1.158,0.186-1.728,0.252c-0.574,0.037-1.142,0.004-1.683-0.013
	c-0.542-0.053-1.059-0.158-1.543-0.248c-0.485-0.085-0.923-0.276-1.328-0.41c-0.811-0.272-1.423-0.67-1.845-0.932
	c-0.421-0.267-0.644-0.449-0.644-0.449s0.297-0.052,0.785-0.091c0.244-0.018,0.538-0.047,0.863-0.049
	c0.324,0.005,0.697-0.062,1.088-0.086c0.393-0.043,0.809-0.022,1.245-0.089c0.43-0.043,0.882-0.088,1.35-0.134
	c0.46-0.082,0.932-0.137,1.407-0.203c0.467-0.117,0.954-0.155,1.421-0.285c0.47-0.115,0.948-0.206,1.403-0.353
	c0.232-0.065,0.461-0.129,0.688-0.192c0.222-0.078,0.442-0.155,0.666-0.221c0.445-0.133,0.857-0.311,1.272-0.448
	c0.395-0.169,0.796-0.302,1.147-0.464c0.728-0.288,1.331-0.578,1.774-0.777C267.079,439.267,267.335,439.146,267.335,439.146z"/>
<path style="fill:#491A0B;" d="M250.158,422.39c0,2.572-1.083,4.657-2.418,4.657s-2.418-2.085-2.418-4.657
	c0-2.572,1.083-4.657,2.418-4.657S250.158,419.818,250.158,422.39z"/>
<path style="fill:#FFFFFF;" d="M226.266,487.5c0,0,12.854,23.48,12.756,39.104c-0.208,33.069-17.355,122.119-17.355,122.119
	l-46.188-165.862L226.266,487.5z"/>
<path style="fill:#95BDC1;" d="M220.481,514.147c0.011-0.021,0.031-0.042,0.04-0.063c1.163-2.694,1.992-10.89,0.778-15.054
	c2.161,2.542,3.988,4.496,4.452,4.785c0.837,0.52,3.855-2.793,5.346-6.317c-1.679-4.197-3.396-7.897-4.691-10.54
	c-1.377-0.933-2.392-1.236-2.392-1.236l-4.415-0.403c-1.206,0.859-3.145,1.708-6.269,2.06c-8.025,0.015-14.945-1.954-20.553-4.51
	l-18.447-1.685l4.674,16.786c10.477,8.6,24.027,12.373,28.313,12.495c0.181,0.005,0.367-0.054,0.555-0.162
	c1.007,1.496,2.03,2.901,2.849,3.988c0.721,0.958,1.725,1.61,2.832,1.923c2.242,39.971-8.724,123.62-8.724,123.62l17.249,29.033
	l9.801-37.166C231.879,631.701,226.972,541.888,220.481,514.147z M215.677,491.91c0.966,1.345,2.055,2.761,3.154,4.131
	c-1.143-0.562-2.635-0.909-4.266-0.951C214.961,493.917,215.335,492.833,215.677,491.91z"/>
<g>
	<path style="fill:#C41A4E;" d="M185.48,490.241c11.577,5.522,30.741,12.284,41.342,1.73c4.271-4.252-2.341-10.866-6.613-6.613
		c-6.885,6.854-22.697,0.296-30.009-3.193C184.796,479.588,180.045,487.648,185.48,490.241L185.48,490.241z"/>
</g>
<path style="fill:#ED2651;" d="M216.722,509.789c4.053,37.057-3.06,118.389-3.06,118.389l17.465,26.702l7.737-35.481
	c0,0-8.418-85.872-15.713-111.086L216.722,509.789z"/>
<path style="fill:#C41A4E;" d="M223.203,508.313l-6.428,1.477c0.212,1.94,0.392,4.008,0.546,6.173
	c1.188,0.758,2.658,1.007,4.067,0.629c1.385-0.371,2.66-0.876,3.398-1.53C224.227,512.535,223.753,510.214,223.203,508.313z"/>
<path style="fill:#ED2651;" d="M220.868,512.735c-1.932,0.517-3.984-0.129-5.254-1.673c-2.77-3.365-7.916-10.064-6.906-12.243
	c3.408-7.349,13.096-7.023,15.464-4.177c2.262,2.717,1.835,12.805,0.683,15.826C224.505,511.387,222.709,512.242,220.868,512.735z"
	/>
<path style="fill:#FFFFFF;" d="M229.938,488.089c-3.672-4.429-8.051-8.558-8.051-8.558s-0.838,3.575-8.183,4.401
	c-22.833,0.042-36.768-15.949-36.768-15.949l-9.63,9.199c6.08,21.084,33.887,29.652,40.385,29.836
	c2.653,0.075,6.149-12.598,8.36-18.555c3.698,5.15,9.214,11.371,10.074,11.905C228.023,501.547,231.78,490.31,229.938,488.089z"/>
<path style="fill:#95BDC1;" d="M176.936,467.983l-9.63,9.199c0.901,3.123,2.287,5.965,4.001,8.552
	c5.526-2.645,14.675-6.739,19.611-7.392C181.964,473.744,176.936,467.983,176.936,467.983z"/>
<path style="fill:#42394F;" d="M164.339,479.264c0,0,46.382,35.027,59.177,91.191c10.728,47.091,9.9,115.481,8.363,143.236
	c-0.382,6.897-17.778,13.799-24.471,15.509c-22.529,5.756-109.074-8.97-109.074-8.97L164.339,479.264z"/>
<path style="fill:#302C3D;" d="M72.718,732.725c0.019,0.068,0.039,0.137,0.058,0.205c3.045,10.553,13.39,16.093,24.958,13.788
	l100.947-20.115c3.214-5.784,4.217-12.599,2.302-19.437l-34.696-123.909c-4.345-15.517-22.051-25.27-39.548-21.783l-52.839,1.177
	c-30.538,6.085-40.222,30.647-35.877,46.165L72.718,732.725z"/>
<path style="fill:#AA0019;" d="M84.782,720.969c3.53,12.607,15.88,21.409,29.772,22.397l83.748-16.688
	c11.899-6.128,18.275-18.661,14.745-31.268L178.35,571.501c-4.345-15.517-22.051-25.27-39.548-21.783l-64.903,12.933
	c-17.497,3.487-28.159,18.892-23.814,34.409L84.782,720.969z"/>
<path style="fill:#E23A29;" d="M103.914,556.67l-20.56,4.097c-15.138,3.016-24.362,16.345-20.603,29.77l4.174,14.907L103.914,556.67
	z"/>
<path style="fill:#302C3D;" d="M121.852,519.188c0,0-26.352,191.812-26.063,225.709c0.139,16.329,53.28-17.473,53.28-17.473
	l154.494,24.704c0,0-56.894-56.059-62.054-108.406c-0.679-6.89-1.938-17.811-1.938-17.811
	C224.969,610.412,121.852,519.188,121.852,519.188z"/>
<path style="fill:#D36F54;" d="M441.576,544.673c0,0,7.466,6.201,16.194-4.82l10.517-0.173c0,0,2.261,6.425,9.822,9.801
	c6.824,3.047,5.183-9.754,5.183-9.754l-22.309-12.934L441.576,544.673z"/>
<path style="fill:#FEB187;" d="M507.847,554.547c-3.213-0.686-6.335-1.774-9.289-3.244l-0.069-0.034l-13.896-23.033
	c-0.442-0.8-1.221-1.359-2.121-1.521L459,522.494c-0.644-0.116-1.305,0.069-1.796,0.503l-12.203,10.405l-6.998,8.846
	c-0.787,0.816-0.295,2.677,0.813,2.916c2.671,0.574,6.738-0.094,11.241-6.239l11.45-7.533c2.143,2.005,6.95,4.531,9.641,5.867
	c1.205,0.598,2.037,1.753,2.228,3.084l1.115,7.775l-0.037,0.023l-2.089,15.954c7.04,2.61,20.145,5.247,20.145,5.247l13.734,4.661
	L507.847,554.547z"/>
<g>
	
		<rect x="419.299" y="518.005" transform="matrix(0.7898 -0.6134 0.6134 0.7898 -230.6216 367.5363)" style="fill:#D14600;" width="3.133" height="4.405"/>
</g>
<path style="fill:#FF7F00;" d="M431.176,534.249l5.831-4.529l-12.975-16.705c-1.238-1.594-3.534-1.883-5.128-0.645l-0.058,0.045
	c-1.594,1.238-1.883,3.534-0.645,5.128L431.176,534.249z"/>
<rect x="436.101" y="511.189" transform="matrix(0.7898 -0.6134 0.6134 0.7898 -237.9761 382.5606)" style="fill:#FF7F00;" width="6.033" height="54.533"/>
<g>
	
		<rect x="425.332" y="513.057" transform="matrix(0.7898 -0.6134 0.6134 0.7898 -232.1288 373.646)" style="fill:#F95900;" width="7.384" height="24.807"/>
</g>
<g>
	
		<rect x="418.045" y="515.555" transform="matrix(0.7897 -0.6134 0.6134 0.7897 -227.9081 367.2139)" style="fill:#B2A5B5;" width="7.383" height="1.047"/>
</g>
<g>
	
		<rect x="425.172" y="516.931" transform="matrix(0.7898 -0.6134 0.6134 0.7898 -234.9106 372.2249)" style="fill:#F95900;" width="0.785" height="23.76"/>
</g>
<polygon style="fill:#FFC200;" points="458.225,558.14 460.423,565.887 453.461,561.84 "/>
<polygon style="fill:#2F3347;" points="459.947,564.209 460.423,565.887 458.915,565.01 "/>
<line style="fill:none;stroke:#FFE98F;stroke-width:1.0471;stroke-miterlimit:10;" x1="458.241" y1="558.16" x2="453.476" y2="561.86"/>
<line style="fill:none;stroke:#FFE98F;stroke-width:1.0471;stroke-miterlimit:10;" x1="448.313" y1="545.377" x2="443.548" y2="549.078"/>
<path style="opacity:0.5;fill:#AA2000;" d="M418.914,512.363c1.594-1.238,3.89-0.95,5.129,0.645l0.3,0.386l0.642,0.827
	l12.033,15.492l2.542,3.272l-0.533,0.414l19.21,24.733l2.198,7.747L418.914,512.363z"/>
<path style="fill:#FEB187;" d="M474.454,548.141c-2.362,1.474-4.079,2.222-6.797,1.62c-3.57-0.791-9.601-2.059-11.629-3.173
	c-3.703-2.035-11.047-2.115-12.937,2.976c-1.224,3.297,4.42,3.585,6.679,4.339c4.231,1.413,15.554,7.583,22.594,10.193
	L474.454,548.141z"/>
<g>
	<path style="fill:#333E4F;" d="M612.221,588.013c0,0,44.876-39.975,68.79-54.362c9.096-5.472-2.531-67.546-20.104-63.621
		c-19.798,4.422-32.18,26.849-32.18,26.849C632.224,568.49,612.221,588.013,612.221,588.013z"/>
</g>
<path style="fill:#475770;" d="M660.907,470.031c17.776-5.75,64.145-15.562,70.053-5.626c11.009,4.793,27.687,16.366,38.555,24.3
	c7.077,5.167,11.766,12.963,13.036,21.633c8.432,57.542,11.732,184.048,14.115,182.661c0,0-63.445,49.052-127.271,3.918
	c0,0-13.708-47.16-23.066-115.699C638.75,525.702,623.644,482.083,660.907,470.031z"/>
<path style="fill:#FFFFFF;" d="M668.171,473.325c0,0-12.849,23.469-12.75,39.086c0.207,33.054,18.234,125.99,18.234,125.99
	l32.925,14.203l12.355-183.915L668.171,473.325z"/>
<path style="fill:#95BDC1;" d="M664.714,599.247l8.94,39.153l21.901-26.737c0,0-16.918-69.686-14.677-109.639
	c1.107-0.313,2.11-0.964,2.831-1.922c0.818-1.086,1.841-2.491,2.847-3.986c0.188,0.107,0.374,0.167,0.555,0.162
	c4.284-0.122,17.828-3.893,28.3-12.49l4.672-16.778l-18.438,1.684c-5.606,2.555-12.523,4.522-20.544,4.508
	c-3.123-0.351-5.061-1.2-6.266-2.059l-4.413,0.403c0,0-1.015,0.303-2.391,1.236c-1.294,2.642-3.01,6.34-4.689,10.535
	c1.49,3.522,4.507,6.834,5.344,6.314c0.465-0.289,2.29-2.242,4.451-4.783c-1.213,4.162-0.384,12.355,0.778,15.047
	c0.009,0.021,0.029,0.042,0.04,0.063C667.466,527.688,664.714,599.247,664.714,599.247z M679.867,480.911
	c-1.63,0.042-3.121,0.389-4.264,0.95c1.098-1.37,2.187-2.786,3.152-4.129C679.097,478.655,679.47,479.739,679.867,480.911z"/>
<g>
	<path style="fill:#C1361B;" d="M704.22,467.993c-7.307,3.485-23.115,10.041-29.996,3.191c-4.268-4.249-10.88,2.358-6.61,6.61
		c10.597,10.55,29.745,3.793,41.323-1.73C714.365,473.476,709.628,465.414,704.22,467.993L704.22,467.993z"/>
</g>
<path style="fill:#95BDC1;" d="M669.179,609.826c0,0-0.162-0.587-0.466-1.687c-0.284-1.103-0.742-2.714-1.242-4.778
	c-0.506-2.063-1.137-4.568-1.777-7.455c-0.647-2.886-1.395-6.139-2.087-9.709c-0.358-1.783-0.732-3.641-1.119-5.564
	c-0.357-1.928-0.726-3.922-1.106-5.971c-0.721-4.105-1.458-8.44-2.12-12.941c-0.357-2.247-0.667-4.539-0.975-6.862
	c-0.325-2.32-0.626-4.673-0.889-7.051c-0.58-4.749-1.033-9.594-1.421-14.457c-0.359-4.862-0.622-9.75-0.675-14.595
	c-0.001-1.215-0.002-2.426-0.003-3.631c-0.001-1.201,0.09-2.424,0.13-3.622c0.027-0.602,0.055-1.201,0.082-1.799
	c0.057-0.608,0.113-1.213,0.17-1.817c0.059-0.603,0.118-1.203,0.177-1.801l0.061-0.537l0.07-0.422l0.14-0.84
	c0.187-1.118,0.372-2.227,0.555-3.326c0.092-0.549,0.183-1.096,0.274-1.64c0.085-0.538,0.249-1.115,0.369-1.665
	c0.261-1.109,0.52-2.207,0.775-3.291c0.129-0.54,0.257-1.077,0.385-1.61c0.162-0.52,0.322-1.037,0.482-1.551
	c0.649-2.048,1.219-4.05,2.03-5.917c0.384-0.938,0.741-1.863,1.128-2.758c0.43-0.88,0.852-1.743,1.266-2.588
	c0.207-0.421,0.411-0.837,0.613-1.249c0.213-0.407,0.458-0.796,0.681-1.187c0.457-0.777,0.894-1.54,1.344-2.266
	c0.469-0.718,0.982-1.387,1.448-2.049c0.468-0.662,0.926-1.3,1.44-1.873c0.493-0.582,0.97-1.145,1.43-1.689
	c0.492-0.518,0.989-0.996,1.462-1.455c0.458-0.471,0.942-0.882,1.413-1.262c0.472-0.379,0.89-0.767,1.338-1.081
	c1.739-1.319,3.287-2.07,4.328-2.549c1.067-0.447,1.667-0.571,1.667-0.571s-0.546,0.28-1.463,0.933
	c-0.909,0.669-2.164,1.737-3.571,3.256c-0.36,0.368-0.688,0.814-1.058,1.245c-0.369,0.433-0.744,0.893-1.087,1.416
	c-0.358,0.505-0.73,1.03-1.116,1.574c-0.348,0.57-0.708,1.162-1.081,1.772c-0.39,0.594-0.722,1.255-1.059,1.936
	c-0.335,0.681-0.709,1.36-1.037,2.088c-0.3,0.746-0.634,1.494-0.964,2.263c-0.162,0.386-0.344,0.766-0.495,1.168
	c-0.141,0.406-0.283,0.818-0.427,1.233c-0.287,0.827-0.58,1.671-0.879,2.531c-0.257,0.877-0.484,1.784-0.734,2.695
	c-0.22,0.923-0.556,1.817-0.724,2.789c-0.202,0.958-0.406,1.93-0.614,2.915c-0.105,0.491-0.211,0.986-0.317,1.483
	c-0.077,0.499-0.155,1.002-0.234,1.507c-0.156,1.008-0.313,2.028-0.472,3.059c-0.18,1.005-0.28,2.113-0.395,3.223
	c-0.115,1.108-0.231,2.226-0.348,3.354c-0.391,4.209-0.336,8.767-0.17,13.437c0.211,4.669,0.479,9.44,0.871,14.219
	c0.174,2.391,0.347,4.782,0.569,7.166c0.205,2.385,0.409,4.762,0.611,7.119c0.424,4.722,0.842,9.369,1.246,13.866
	c0.398,4.506,0.783,8.863,1.148,12.994c0.367,4.134,0.656,8.053,0.942,11.67c0.302,3.614,0.53,6.937,0.719,9.884
	c0.227,2.942,0.346,5.519,0.468,7.639c0.137,2.119,0.179,3.794,0.237,4.931C669.159,609.218,669.179,609.826,669.179,609.826z"/>
<path style="fill:#F43E21;" d="M677.711,495.604c-4.051,37.04,13.61,117.934,13.61,117.934l-14.381,35.713l-13.793-56.41
	c0,0,0.845-73.511,8.138-98.713L677.711,495.604z"/>
<path style="fill:#B5240D;" d="M671.232,494.128l6.426,1.476c-0.212,1.939-0.392,4.006-0.545,6.17
	c-1.187,0.758-2.656,1.006-4.065,0.629c-1.384-0.37-2.659-0.876-3.397-1.529C670.209,498.348,670.683,496.028,671.232,494.128z"/>
<path style="fill:#F43E21;" d="M673.566,498.548c1.931,0.517,3.982-0.129,5.252-1.673c2.769-3.364,7.912-10.059,6.903-12.237
	c-3.406-7.346-13.09-7.02-15.457-4.175c-2.261,2.716-1.835,12.799-0.683,15.819C669.931,497.201,671.726,498.056,673.566,498.548z"
	/>
<path style="fill:#607991;" d="M680.329,459.244c-7.632,2.232-33.454,13.936-38.844,43.333l10.715,3.501l-10.715,10.716
	c0,0,0,52.099,34.835,113.964c0,0-20.9-95.658-17.423-128.18C662.904,465.112,680.329,459.244,680.329,459.244z"/>
<path style="fill:#475770;" d="M730.069,465.092c0,0-34.514,18.124-41.32,95.717c-4.218,48.091-8.419,152.397-1.729,154.106
	c22.519,5.754,80.829,12.313,109.024-8.966L730.069,465.092z"/>
<path style="fill:#333E4F;" d="M781.944,507.251c0,0,4.556,28.249,8.556,65.499s15.489,157.786,15.489,157.786
	s-82.861,30.091-122.474,0.875l-5.857-89.699L781.944,507.251z"/>
<path style="fill:#333E4F;" d="M741.823,470.112c-5.226-2.563-4.663-4.128-9.64-5.323c-0.45-0.756-1.047-1.416-1.749-2.007
	c-0.126-0.046-0.193-0.071-0.193-0.071c1.631,5.848-3.139,12.327-12.527,22.269c-9.388,9.942-46.989,48.884-48.063,163.327
	l3.016-15.641l52.343-105.911L717,516l12.667-1C738.846,504.089,745.333,478.667,741.823,470.112z"/>
<path style="fill:#607991;" d="M667.927,638.641c4.467-102.737,33.319-147.186,42.707-157.128c9.388-9.942,4.478-29.22,2.847-35.068
	c-0.05-0.032,28.342,20.566,28.342,23.667c0,9.92-9.057,30.462-16.666,40.505l-18.578,0.819l10.361,14.094L667.927,638.641z"/>
<path style="fill:#FFA87D;" d="M673.654,467.719l2.618,0.97c15.215,5.35,32.043-1.265,41.051-14.643l0.154-0.229l-5.022-43
	l-44.199,5.379L673.654,467.719z"/>
<path style="fill:#FF855A;" d="M704.805,425.81c0.026-33.098,3.546-42.175,3.546-42.175l-60.915,71.757l20.018-3.408
	c2.486-0.423,4.81,1.351,5.057,3.861l0.28,2.847C672.791,458.69,704.787,448.993,704.805,425.81z"/>
<path style="fill:#FFA87D;" d="M627.77,422.504l8.397-16.838c1.333-4,3.91-5.734,2.144-7.552c-1.274-1.311-3.573-7.409-3.644-8.281
	c-2.643-32.829,7.356-32.225,33.583-45.926l-2.285-0.117c19.027-2.874,22.287,13.667,25.161,32.694l5.181,34.305
	c3.377,22.361-3.754,24.095-14.603,30.65c-10.703,6.467-30.781,14.442-35.269,13.953c-1.673-0.182-3.102-1.892-3.602-5.225
	c-0.294-1.959,0.532-4.935,0.131-7.16c-0.166-0.917-2.492-4.841-2.631-5.757c-0.956-6.291-1.137-9.153-1.137-9.153
	S627.545,425.902,627.77,422.504z"/>
<path style="fill:#6D4B44;" d="M687.75,403.5c0,0-4.201,1.913-6.762-0.237c-3.563-2.991-5.821-11.973-5.821-28.263
	c0-5.344-3.167-10.167-8.5-10.833c-10.179-1.272-17.667,2-31.545,5.258c0,0-3.52-12.46,10.985-22.74
	c13.263-9.399,47.666-17.644,64.523-2.343c0.768,0.697,2.443,3.911,2.443,3.911s3.093-0.156,4.752,0.55
	c31.714,13.511,5.235,60.195-3.256,85.752c0,0-4.703-9.233-6.217-16.384C708.351,418.172,689.019,410.588,687.75,403.5z"/>
<path style="fill:#FF855A;" d="M689.581,401.195c-3.288,7.427-1.313,15.503,4.412,18.037c5.725,2.535,13.032-1.431,16.32-8.859
	c3.288-7.427,1.313-15.503-4.412-18.037C700.176,389.801,692.87,393.767,689.581,401.195z"/>
<g>
	<path style="fill:#C16952;" d="M640.836,436.244c-0.009,0.004-0.018,0.007-0.027,0.011c-0.791,0.328-1.25,1.599-0.27,2.064
		c1.169,0.554,2.916,0.343,4.137,0.234c2.822-0.252,5.482-1.083,7.941-2.488c1.262-0.721,0.125-2.674-1.14-1.95
		c-2.104,1.203-4.383,1.955-6.801,2.18c-0.702,0.065-1.41,0.094-2.114,0.073c-0.168-0.005-1.211-0.154-0.883,0.002
		c-0.09,0.688-0.18,1.376-0.27,2.064c0.009-0.004,0.018-0.007,0.026-0.011C642.76,437.873,642.179,435.687,640.836,436.244
		L640.836,436.244z"/>
</g>
<g>
	<path style="fill:#633D33;" d="M651.364,391.422c-4.455-1.509-9.037-1.58-13.624-0.64c-2.134,0.438-1.231,3.704,0.901,3.267
		c4.021-0.824,7.931-0.678,11.823,0.64C652.533,395.391,653.421,392.119,651.364,391.422L651.364,391.422z"/>
</g>
<path style="fill:#FFA87D;" d="M688.62,400.276c-3.13,7.069-1.249,14.755,4.199,17.167c5.449,2.412,12.403-1.362,15.533-8.431
	c3.13-7.069,1.249-14.755-4.2-17.167C698.704,389.433,691.75,393.207,688.62,400.276z"/>
<path style="fill:#FF855A;" d="M627.75,423.167c0,0,0.31,0.023,0.822,0.083c0.512,0.062,1.229,0.157,2.06,0.29
	c1.669,0.258,3.78,0.691,5.854,1.056c0.517,0.084,1.035,0.168,1.544,0.251c0.508,0.045,1.012,0.179,1.497,0.209
	c0.484,0.04,0.965,0.15,1.413,0.162c0.449,0.025,0.893,0.113,1.293,0.116c0.402,0.013,0.784,0.048,1.13,0.079
	c0.346,0.006,0.647,0.011,0.896,0.015c0.51,0.013,0.83,0.049,0.83,0.049s-0.215,0.211-0.64,0.53
	c-0.214,0.152-0.473,0.371-0.798,0.542c-0.326,0.167-0.702,0.356-1.126,0.536c-0.424,0.193-0.901,0.29-1.411,0.432
	c-0.512,0.149-1.055,0.187-1.624,0.254c-0.572,0.078-1.151,0.04-1.749,0.032c-0.596-0.014-1.185-0.121-1.783-0.192
	c-1.173-0.228-2.322-0.554-3.34-0.994c-1.027-0.418-1.922-0.947-2.655-1.443c-0.727-0.515-1.291-1.002-1.659-1.382
	C627.93,423.421,627.75,423.167,627.75,423.167z"/>
<path style="fill:#633D33;" d="M648.746,399.921c0.821,3.778,0.109,6.934-0.804,7.048c-0.913,0.113-1.898-1.768-2.2-4.203
	c-0.302-2.434-0.165-3.546,0.748-3.66C647.403,398.992,648.746,399.921,648.746,399.921z"/>
<g>
	<path style="fill:#633D33;" d="M644.776,399.53l3.578,0.152L644.776,399.53z"/>
	<g>
		<path style="fill:#633D33;" d="M644.622,400.088c1.526,0.384,2.052-0.232,3.578,0.152c0.725,0.182,1.032-0.935,0.308-1.117
			c-1.526-0.384-2.052,0.232-3.578-0.152C644.205,398.789,643.897,399.906,644.622,400.088L644.622,400.088z"/>
	</g>
</g>
<path style="fill:#FFFFFF;" d="M664.911,475.245c1.462-5.561,8.219-12.533,8.219-12.533s0.255,6.22,7.597,7.046
	c22.822,0.042,36.751-15.941,36.751-15.941l4.653,4.445c0.881,0.842,1.353,2.028,1.266,3.244
	c-0.232,3.237-2.472,10.119-14.126,21.703c-7.367,7.323-19.124,9.529-22.534,9.626c-2.652,0.075-6.146-12.592-8.356-18.546
	c-3.696,5.147-9.21,11.366-10.07,11.9C666.415,487.365,664.005,478.693,664.911,475.245z"/>
<linearGradient id="SVGID_1_" gradientUnits="userSpaceOnUse" x1="448.0804" y1="512.007" x2="448.0804" y2="822.0035">
	<stop  offset="0.0058" style="stop-color:#BC5631"/>
	<stop  offset="1" style="stop-color:#A84833"/>
</linearGradient>
<polygon style="fill:url(#SVGID_1_);" points="831.73,740.78 64.43,740.78 278.69,608.43 282.39,606.14 636.15,606.14 "/>
<path style="opacity:0.42;fill:#60312E;" d="M491.78,606.14c-19.15,12.83-66.73,8.9-115.16,8.9c-48.62,0-96.62,0-96.62,0
	s-0.55-2.54-1.31-6.61l3.7-2.29H491.78z"/>
<rect x="64.428" y="740.78" style="fill:#DB613B;" width="767.305" height="19.458"/>
<path style="fill:#60312E;" d="M605.916,639.511l-1.898,0.522l-0.133,0.674c-0.238,1.209-0.403,2.422-0.534,3.635
	c-4.459,0.505-9.462,1.193-13.138,2.045c-7.919,1.835-20.635,6.722-26.244,8.091v-2.459l-14.88-13.631l-2.224,0.696l-5.408-4.924
	c-6.846-0.365-13.791-0.674-20.825-0.927l-91.381,26.249V664L469,703.5l90.045-21.375l7.963,8.765
	c0.494,0.563,1.219,0.87,1.967,0.832l27.289-1.384c1.046-0.053,2.013-0.574,2.632-1.42l15.005-11.991
	c0.082,0.091,0.157,0.188,0.24,0.278l0.145,0.158l4.371-1.202c2.109,2.163,4.311,2.822,6.662,2.653
	c22.368-1.608,110.385-4.06,110.385-4.06l-80.371-57.42C655.333,617.333,629.361,642.224,605.916,639.511z M589.719,665.46
	c-0.225,0.251-0.497,0.575-0.806,0.986c-4.884,3.125-6.884,7.096-6.884,7.096l-0.974-0.141v-3.183l-7.908-7.201
	c3.077-0.457,6.946-0.779,9.633-1.023c3.063-0.279,4.891,0.743,7.232,2.625C589.914,664.898,589.817,665.178,589.719,665.46z"/>
<path style="fill:#60312E;" d="M229.569,652.689c-0.067,0.79-0.099,1.584-0.076,2.379l-2.153,1.277l-0.843,0.216
	c-3.705,0.194-10.215,0.524-15.441,1.139c-3.441,1.04-6.727,2.106-9.865,3.193c-2.684,2.151-4.379,4.805-6.088,5.489
	c-2.207,0.884-8.866,1.452-9.582,3.942c-0.375,1.305,0.821,2.991,3.18,3.974c-0.315,0.328-0.569,0.628-0.729,0.887
	c-2.968,4.783-6.636,12.682-2.742,13.742c4.29,1.168,7.333-7.708,11.884-11.327c0.172-0.137,0.414-0.319,0.707-0.535
	c-6.024,7.668-8.911,16.389-6.545,19.166c3.384,3.97,6.875-2.842,9.175-6.414c2.301-3.572,4.644-6.287,4.644-6.287
	c-10.076,14.963-1.408,21.211,3.47,12.53c4.879-8.681,8.68-12.239,8.68-12.239c-2.77,3.225-6.617,11.403-1.308,11.113
	c5.309-0.29,4.699-7.827,17.062-11.813c4.931-1.59,9.523-4.789,13.264-8.061c0.76,0.113,1.526,0.15,2.286,0.106
	c4.268,0.441,8.674-0.394,12.547-2.739c18.776-11.366,77.499-46.568,75.375-52.884C303.856,605.431,254.058,646.73,229.569,652.689z
	"/>
<path style="fill:#546982;" d="M737.69,507.379c-15.019,37.189-34.778,92.498-34.778,92.498s-52.02,15.924-86.299,24.739
	c-12.516,3.218-0.407,49.784,12.105,46.566c20.462-5.262,29.557-6.333,50.018-11.594c11.668-3,28.191-8.428,39.859-11.428
	c2.137-0.549,4.273-1.099,6.41-1.648c10.032-2.58,14.268-10.792,17.747-19.404c14.638-36.245,21.357-59.797,35.613-96.195
	c8.502-21.707,0.732-37.593-11.5-40.098c-6.22-1.273-12.798-0.818-18.275,2.391C742.79,496.602,740.114,501.377,737.69,507.379
	L737.69,507.379z"/>
<path style="fill:#42394F;" d="M319.69,629.58c-19.19,11.61-38.37,23.22-57.55,34.83c-6.5,3.93-14.5,3.64-20.83,0.15
	c-3.23-1.78-6.03-4.39-7.96-7.7c-5.86-10.01-2.24-22.86,7.55-28.79c18-10.9,36.01-21.8,54.02-32.69c1.18-0.72,2.35-1.43,3.53-2.14
	c5.88-3.56,13.01-3.65,19-1.05c4,1.74,7.49,4.68,9.78,8.6C333.1,610.8,329.48,623.65,319.69,629.58z"/>
<path style="fill:#302C3D;" d="M319.69,629.58c-19.19,11.61-38.37,23.22-57.55,34.83c-6.5,3.93-14.5,3.64-20.83,0.15
	c3.44-5.14,9.603-7.542,18.36-10.56c8.705-3,13.08-9.25,7.955-18c-3.572-6.099-13.295-8.33-26.725-7.93
	c18-10.9,36.01-21.8,54.02-32.69c7.83-1.04,15.62-2.12,22.53-3.19c4,1.74,7.49,4.68,9.78,8.6
	C333.1,610.8,329.48,623.65,319.69,629.58z"/>
<path style="fill:#FFFFFF;" d="M258.11,662.452c-3.59,5.052-10.596,6.237-15.648,2.647l-7.203-5.119
	c-5.052-3.59-6.237-10.596-2.647-15.648l1.055-1.485c3.59-5.052,14.363-7.695,20.499-3.181c11.667,8.583,8.589,16.249,4.999,21.301
	L258.11,662.452z"/>
<path style="fill:#FF855A;" d="M230.479,648.349c-0.487,0.205-21.286,0.705-25.615,2.831c-4.328,2.126-6.506,6.302-8.713,7.185
	c-2.208,0.883-8.866,1.452-9.582,3.941s4.242,6.39,12.197,4.085C206.721,664.088,230.479,648.349,230.479,648.349z"/>
<path style="fill:#FF855A;" d="M234.323,644.806l-5.936,3.522l-20.142,5.165c0,0-17.093,10.236-19.226,13.675
	c-2.967,4.783-4.836,12.596-0.942,13.656c4.29,1.167,10.084-11.241,10.084-11.241c0.172-0.137,0.414-0.319,0.707-0.535
	c-6.024,7.668-8.911,16.389-6.545,19.166c3.384,3.97,6.875-2.842,9.175-6.414c-2.946,9.087,3.236,14.924,8.114,6.242
	c1.298-2.31,2.52-4.258,3.615-5.872c0,0-0.959,5.746,3.757,5.555c5.313-0.214,4.699-8.636,17.063-12.622
	c7.915-2.552,13.932-10.454,19.003-13.741c2.248-1.457,3.54-3.442,2.712-5.562C249.358,639.397,234.323,644.806,234.323,644.806z"/>
<path style="fill:#302C3D;" d="M152.63,485.258c0,0-5.174,13.986,44.74,51.177l17.659,13.582c0,0-14.072-33.779-46.648-66.784
	c0,0-2.512-2.411,1.616-8.352l4.426-4.911c0,0-4.106,1.099-9.445,3.747C158.663,476.848,152.63,485.258,152.63,485.258z"/>
<path style="fill:#43384F;" d="M154.997,482.881c0,0-5.174,13.986,44.739,51.177l15.292,15.959c0,0-11.705-36.156-44.281-69.161
	c0,0-3.402-4.122,1.868-8.591l4.481-4.281c0,0-4.413,0.709-9.751,3.357C161.03,474.471,154.997,482.881,154.997,482.881z"/>
<path style="fill:#302C3D;" d="M327.678,511.185l11.564,4.125c1.617,0.577,2.392,2.415,1.676,3.975l-5.15,11.223
	c-0.373,0.813-0.357,1.747,0.05,2.544c3.2,6.271,18.371,35.743,44.911,83.334c0,0-5.205-63.391-27.319-104.053
	c-7.882-14.494-13.743-22.921-14.695-27.122c-0.342-1.508-0.002-3.086,0.921-4.327l4.585-6.157l-0.405-2.155
	c-4.219,1.484-14.406,7.875-18.966,13.561c-2.781,3.468-2.558,12.48,1.044,23.247C326.176,510.225,326.84,510.886,327.678,511.185z"
	/>
<path style="fill:#42394F;" d="M329.675,508.203l11.563,4.125c1.617,0.577,2.392,2.415,1.676,3.975l-5.15,11.223
	c-0.373,0.813-0.356,1.747,0.05,2.544c3.2,6.271,18.371,35.743,44.911,83.334c0,0-5.205-63.391-27.319-104.053
	c-7.883-14.494-13.743-22.921-14.695-27.122c-0.342-1.508-0.002-3.086,0.921-4.327l4.585-6.157l-0.405-2.155
	c-4.219,1.484-14.406,7.875-18.966,13.561c-2.781,3.468-2.558,12.48,1.044,23.247C328.173,507.243,328.837,507.904,329.675,508.203z
	"/>
<path style="fill:#FFA87D;" d="M255.76,655.8c0,0-2.66,1.82-4.76,3.98c-0.18,0.18-0.35,0.36-0.51,0.54
	c-3.7,4.11-11.46,9.79-18.71,12.13c-11.32,3.65-10.76,10.55-15.62,10.81c-4.84,0.27-1.37-7.16,1.16-10.13
	c-0.4,0.39-3.72,3.72-7.91,11.17c-4.47,7.93-12.39,2.23-3.2-11.45c-0.25,0.28-2.25,2.66-4.23,5.73c-2.11,3.27-5.3,9.51-8.4,5.87
	c-2.17-2.54,0.48-10.53,5.99-17.55c-0.27,0.2-0.49,0.37-0.64,0.49c-4.17,3.32-6.96,11.44-10.89,10.38
	c-3.56-0.98-0.72-7.23,2.51-12.59c0.15-0.24,0.38-0.51,0.67-0.81c-2.189,0.4-5-0.87-4.65-2.06c0.65-2.28,8.49-4.38,10.51-5.19
	c2.03-0.81,4.02-4.63,7.98-6.58c3.09-1.51,15.29-2.12,20.77-2.41l0.77-0.2l5.44-3.22c0,0,8.9-3.5,16.44,1.47
	C251.27,648.02,253.87,651.02,255.76,655.8z"/>
<path style="fill:#FF855A;" d="M386.855,618.138c0,0,26.637-0.677,34.8,0.883c8.163,1.56,6.036-5.152-1.209-8.5
	c-8.111-3.749-39.692-2.876-39.692-2.876L386.855,618.138z"/>
<path style="fill:#FFA87D;" d="M421.73,609.66c-8.76,1.95-27.49,6.75-34.76,8.63c-2.04,0.53-4.11,0.28-5.97-0.74
	c-1.31-0.71-2.8-1.57-4.38-2.51c0,0,0,0,0-0.01c-6.9-4.12-15.56-9.84-18.54-11.83c-0.7-0.47-1.47-0.68-2.27-0.64l-3.17,0.18
	l-14.7,0.82l-2.23-18.64c0,0,21.17-2.78,28.88-3.9c7.1-1.03,12.13,2.56,14.81,5.26c1.64,1.64,3.72,2.24,5.78,1.7
	c11.76-3.1,22.07-3.09,20.71,4.24c-0.65,3.47-20.83,7.9-20.83,7.9c0.01,0.02,0.02,0.04,0.04,0.05c1.22,1.67,2.68,2.9,4.28,3.67
	c1.77,0.85,3.69,1.14,5.64,0.8c4.83-0.82,11.91-2.06,16.51-3.01c5.15-1.06,10.229,1.05,11.59,3.65
	C423.98,606.91,423.21,609.33,421.73,609.66z"/>
<path style="fill:#FFFFFF;" d="M356.171,577.565l-11.925,0.125l0.029,37.139l13.432-0.564
	C357.706,614.265,366.181,597.219,356.171,577.565z"/>
<path style="fill:#4F455E;" d="M137.932,557.073c30.11,24.226,60.158,40.005,91.087,64.564c10.547,8.375,19.457,6.73,31.285,5.997
	c13.197-0.818,62.881-3.664,83.062-6.226c18.54-2.354,12.616-49.931-0.741-49.103c-38.123,2.362-88.939,4.898-88.939,4.898
	c-33.24-26.393-57.225-43.882-90.465-70.276c-0.058-0.046-0.117-0.093-0.175-0.139c-10.457-8.303-24.92-9.405-34.709,0.96
	C122.554,513.872,113.631,537.522,137.932,557.073z"/>
<path style="fill:#384559;" d="M628.23,671.48c-3.12,0.32-9.39-2.01-13.71-16.98c-4.92-17.03-2.97-27.67,0.41-29.57
	c0.89-0.5,2.4-0.28,4.16,1.17c2.81,2.29,6.28,7.69,8.96,18.16c1.32,5.13,2.16,9.35,2.66,12.8
	C632.26,668.07,630.19,671.27,628.23,671.48z"/>
<g>
	<path style="fill:#475770;" d="M698.534,599.085c5.726,2.823,10.423,8.001,13.583,13.432c0.982,1.687,3.605,0.161,2.62-1.531
		c-3.402-5.847-8.505-11.481-14.671-14.52C698.32,595.605,696.781,598.221,698.534,599.085L698.534,599.085z"/>
</g>
<path style="fill:#561600;" d="M171.633,375.661c0,0-0.062-0.023-0.179-0.067c-0.11-0.047-0.303-0.1-0.485-0.198
	c-0.396-0.181-0.907-0.467-1.44-0.849c-1.059-0.768-2.114-1.966-2.784-3.352c-0.69-1.377-0.99-2.944-0.946-4.252
	c0.026-0.656,0.115-1.235,0.216-1.66c0.036-0.205,0.112-0.39,0.144-0.506c0.038-0.119,0.058-0.182,0.058-0.182
	s0.063,0.023,0.179,0.066c0.11,0.046,0.304,0.099,0.487,0.197c0.397,0.18,0.91,0.466,1.443,0.847
	c1.06,0.767,2.114,1.966,2.778,3.355c0.684,1.38,0.982,2.948,0.94,4.255c-0.025,0.655-0.113,1.234-0.213,1.658
	c-0.035,0.204-0.111,0.389-0.142,0.505C171.653,375.597,171.633,375.661,171.633,375.661z"/>
<path style="fill:#FFFFFF;" d="M507.847,551.934c-0.174-0.011-6.363-0.274-9.358-0.666c0,0,5.366,4.374,4.281,17.794
	c-0.807,9.987-3.366,17.919-7.142,17.687c0,0,13.394-0.475,13.411-0.474c0,0,2.281-5.047,2.779-15.671
	C512.439,557.375,507.847,551.934,507.847,551.934z"/>
<path style="fill:#E23A29;" d="M795.129,556.67l20.56,4.097c15.138,3.016,24.362,16.345,20.603,29.77l-4.174,14.907L795.129,556.67z
	"/>
<g>
	<path style="fill:#E56D48;" d="M554.796,650.351c0,0,9.386-5.962,17.703,7.832l11.926,1.726c0,0,3.504-6.973,12.588-9.71
		c8.199-2.471,4.472,11.839,4.472,11.839l-27.234,11.456L554.796,650.351z"/>
	<path style="fill:#FF855A;" d="M601.294,675.286c-0.619,0.845-1.585,1.367-2.632,1.42l-27.289,1.384
		c-0.749,0.038-1.473-0.269-1.968-0.832l-12.356-13.6l-6.667-11.071c-0.776-1.042,0.054-3.086,1.348-3.195
		c3.119-0.264,7.643,1.087,11.868,8.725l11.917,10.226c2.727-1.967,8.557-4.139,11.81-5.266c1.456-0.504,7.521-19.284,7.932-20.77
		l28.604,0.944l2.47,12.509L601.294,675.286z"/>
	<polygon style="fill:#AF9C97;" points="566.367,645.271 551.486,645.271 551.486,624.757 566.367,638.388 	"/>
	<path style="fill:#6B4436;" d="M432.648,650.368v-4.518l103.25-28.13c0.483-0.144,0.94-0.061,1.268,0.23l46.285,38.635v4.517
		l-114.213,38.349L432.648,650.368z"/>
	<polygon style="fill:#DD7057;" points="432.648,645.85 538.046,615.24 583.452,656.585 470.142,694.934 	"/>
	<path style="fill:#FFFFFF;" d="M446.397,644.606l90.29-27.499l41.452,37.97l-99.015,32.137
		C478.617,687.379,446.397,644.606,446.397,644.606z"/>
	<path style="fill:#FFA87D;" d="M592.703,651.222l-0.038-0.031c-2.47-2.018-4.312-3.118-7.489-2.829
		c-4.172,0.38-11.211,0.944-13.677,1.915c-4.505,1.775-12.862,0.798-14.27-5.263c-0.912-3.925,5.545-3.431,8.222-3.96
		c5.014-0.991,18.779-6.356,27.16-8.299c8.38-1.943,23.656-3.034,23.656-3.034l5.247-0.864c0,0,8.895,19.876,5.4,20.537
		c-2.166,0.41-4.303,0.98-6.394,1.707l-0.084,0.029c0,0-13.828,20.074-22.423,20.074l-22.497-2.862c0,0,2.401-1.593,5.568-3.093
		c3.167-1.5,6.242-2.173,6.242-2.173C588.339,655.087,592.703,651.222,592.703,651.222z"/>
	<g>
		<path style="fill:#FFFFFF;" d="M623.32,658.15c0.01-0.02,0.67-2.07-2.92-16.06c-2.58-10.04-4.673-12.303-4.673-12.303
			c0.13,0,3.277-1.073,5.357-1.703c1.833,2.417,4.287,5.707,6.966,16.177c1.32,5.13,2.16,9.35,2.66,12.8
			C627.75,657.5,623.33,658.14,623.32,658.15z"/>
	</g>
	<g>
		<path style="fill:#CCBAB4;" d="M556.67,639.615l-12.328-11.293c-0.48-0.44-0.303-1.235,0.318-1.429l6.827-2.136l14.88,13.63
			l-6.324,1.979C558.865,640.735,557.58,640.448,556.67,639.615z"/>
	</g>
	<polygon style="fill:#CCBAB6;" points="541.322,660.725 512.34,629.115 514.643,628.349 543.786,659.807 	"/>
	<polygon style="fill:#CCBAB6;" points="535.315,646.252 518.574,628.42 520.859,627.657 537.692,645.405 	"/>
	<polygon style="fill:#CCBAB6;" points="536.001,662.708 507.372,630.768 509.696,629.995 538.491,661.78 	"/>
	<polygon style="fill:#CCBAB6;" points="530.624,664.712 502.356,632.435 504.703,631.655 533.14,663.774 	"/>
	<polygon style="fill:#CCBAB6;" points="525.298,666.699 497.197,634.153 499.564,633.362 527.836,665.748 	"/>
	<polygon style="fill:#CCBAB6;" points="519.816,668.753 492.091,635.86 494.48,635.062 522.381,667.792 	"/>
	<path style="opacity:0.26;fill:none;stroke:#5C7C69;stroke-width:4.323;stroke-miterlimit:10;" d="M494.999,676.409
		c-6.179,0.805-12.377-1.26-13.763-4.573c-1.363-3.26,2.483-6.453,8.512-7.174c5.967-0.713,11.965,1.253,13.475,4.43
		C504.757,672.319,501.111,675.612,494.999,676.409z"/>
	<g>
		<path style="fill:#B0CC58;" d="M536.259,628.292c0.519,0.521,0.456,1.3-0.934,1.905c-0.218-0.221-0.411-0.417-0.629-0.637
			c0.475-0.282,0.54-0.56,0.273-0.829c-0.373-0.377-1.244-0.412-2.164-0.101c-0.818,0.277-1.295,0.765-0.929,1.151
			c0.269,0.275,0.788,0.393,1.454,0.259c0.214,0.218,0.409,0.417,0.627,0.639c-1.675,0.445-2.857,0.085-3.383-0.456
			c-0.634-0.642-0.309-1.614,1.578-2.256C534.039,627.333,535.625,627.655,536.259,628.292z"/>
		<path style="fill:#B0CC58;" d="M534.933,630.804c3.848-1.314,6.463,1.302,2.594,2.637
			C533.62,634.788,531.049,632.13,534.933,630.804z M536.861,632.764c2.016-0.693,0.742-1.977-1.268-1.289
			C533.56,632.172,534.822,633.466,536.861,632.764z"/>
		<path style="fill:#B0CC58;" d="M538.658,634.646l-2.776,0.961c-0.226-0.232-0.452-0.465-0.673-0.693l5.648-1.951l0.239,0.24
			l-1.472,2.282l2.757-0.958c0.227,0.228,0.454,0.456,0.681,0.684l-5.659,1.972l-0.236-0.242L538.658,634.646z"/>
		<path style="fill:#B0CC58;" d="M542.183,636.071c0.435-0.152,0.861-0.301,1.287-0.449l1.956,1.965
			c-0.428,0.15-0.856,0.301-1.293,0.455l-0.644-0.651l-4.381,1.537c-0.22-0.226-0.439-0.451-0.658-0.677l4.375-1.531
			L542.183,636.071z"/>
		<path style="fill:#B0CC58;" d="M542.607,642.232l-0.214,0.076l-0.758-0.78l1.23-1.062l-0.352-0.359l-1.682,0.594
			c-0.226-0.232-0.455-0.468-0.672-0.692c1.899-0.669,3.792-1.335,5.685-2.002c0.383,0.385,0.779,0.783,1.169,1.174
			c1.046,1.062-1.456,2.213-3.111,1.873L542.607,642.232z M545.716,639.639c-0.152-0.164-0.327-0.331-0.487-0.492
			c-0.462,0.163-0.95,0.335-1.405,0.496l0.486,0.493C544.678,640.512,546.097,640.036,545.716,639.639z"/>
		<path style="fill:#B0CC58;" d="M545.197,644.187l-1.061-1.089l-0.88,0.096l-0.667-0.687l0.214-0.076l6.793-0.758l0.299,0.301
			l-4.374,3.252l-0.215,0.077l-0.676-0.695L545.197,644.187z M547.434,642.648l-1.808,0.232l0.609,0.621L547.434,642.648z"/>
		<path style="fill:#B0CC58;" d="M552.732,644.836c0.575,0.577,0.55,1.44-0.882,2.108c-0.242-0.245-0.456-0.462-0.698-0.707
			c0.486-0.312,0.539-0.619,0.243-0.918c-0.414-0.418-1.334-0.458-2.288-0.115c-0.848,0.306-1.325,0.845-0.918,1.273
			c0.298,0.305,0.852,0.437,1.547,0.289c0.237,0.241,0.454,0.463,0.696,0.709c-1.743,0.49-3.008,0.09-3.592-0.511
			c-0.702-0.712-0.411-1.787,1.544-2.495C550.341,643.772,552.029,644.13,552.732,644.836z"/>
		<path style="fill:#B0CC58;" d="M552.942,646.938c0.445-0.162,0.881-0.32,1.317-0.479l2.091,2.1
			c-0.438,0.16-0.876,0.321-1.323,0.484l-0.689-0.695l-4.483,1.638c-0.235-0.242-0.469-0.483-0.703-0.724l4.477-1.631
			L552.942,646.938z"/>
	</g>
</g>
<path style="fill:#FF855A;" d="M389.02,603.65c-5.03-0.21-8.29-1.96-10.2-3.48c2.41,0.48,4.68,0.48,6.28,0
	C386.23,601.71,387.56,602.88,389.02,603.65z"/>
<path style="fill:#FF855A;" d="M255.76,655.8c0,0-2.66,1.82-4.76,3.98c1.2-3.53,1.36-9.27-2.52-13.6
	C251.27,648.02,253.87,651.02,255.76,655.8z"/>
<rect x="114.667" y="100.667" style="opacity:0.29;fill:#302C3D;" width="675.333" height="12.667"/>
</svg>
